<?xml version="1.0" encoding="iso-8859-1"?>
<!-- Generator: Adobe Illustrator 16.0.0, SVG Export Plug-In . SVG Version: 6.00 Build 0)  -->
<!DOCTYPE svg PUBLIC "-//W3C//DTD SVG 1.1//EN" "http://www.w3.org/Graphics/SVG/1.1/DTD/svg11.dtd">
<svg version="1.1" id="Capa_1" xmlns="http://www.w3.org/2000/svg" xmlns:xlink="http://www.w3.org/1999/xlink" x="0px" y="0px"
	 preserveAspectRatio='none'
	 viewBox="142 0 260 544.115" style="enable-background:new 0 0 544.115 544.115;"
	 xml:space="preserve">
<g>
	<g>
		<path d="M157.298,544.115h229.519c8.74,0,15.826-7.086,15.826-15.826V15.826c0-8.75-7.086-15.826-15.826-15.826H157.298
			c-8.74,0-15.826,7.085-15.826,15.826v512.454C141.472,537.029,148.558,544.115,157.298,544.115z M194.888,532.238h-8.587
			c-0.574,0-1.033-0.469-1.033-1.041c0-0.564,0.459-1.043,1.033-1.043h8.587c0.574,0,1.042,0.479,1.042,1.043
			C195.931,531.77,195.472,532.238,194.888,532.238z M194.888,528.051h-8.587c-0.574,0-1.033-0.459-1.033-1.033
			c0-0.564,0.459-1.041,1.033-1.041h8.587c0.574,0,1.042,0.467,1.042,1.041C195.931,527.602,195.472,528.051,194.888,528.051z
			 M202.127,530.785c0,1.234-0.995,2.238-2.228,2.238s-2.238-1.004-2.238-2.238v-7.373h-14.124v7.373
			c0,1.234-0.995,2.238-2.228,2.238c-1.234,0-2.238-1.004-2.238-2.238v-9.6c0-1.234,1.004-2.238,2.238-2.238h18.589
			c1.233,0,2.228,1.004,2.228,2.238V530.785L202.127,530.785z M293.162,528.289c0,2.191-1.769,3.959-3.949,3.959h-34.3
			c-2.19,0-3.959-1.768-3.959-3.959v-5.938c0-2.189,1.769-3.959,3.959-3.959h34.3c2.19,0,3.949,1.77,3.949,3.959V528.289
			L293.162,528.289z M357.852,533.434h-7.009c-1.233,0-2.229-1.004-2.229-2.236c0-1.234,0.995-2.229,2.229-2.229h7.009
			c1.511,0,2.735-1.176,2.735-2.611c0-1.443-1.225-2.609-2.735-2.609h-5.909c-0.22,0.305-0.459,0.506-1.004,0.496
			c-0.153,0-0.335-0.027-0.488-0.096l-3.644-1.539c-0.439-0.191-0.736-0.621-0.736-1.1s0.287-0.918,0.728-1.1l3.643-1.539
			c0.44-0.182,0.957-0.096,1.311,0.258c0.048,0.047,0.096,0.096,0.134,0.152h5.967c3.969,0,7.191,3.176,7.191,7.086
			C365.053,530.26,361.821,533.434,357.852,533.434z M371.03,10.49c3.289,0,5.957,2.668,5.957,5.958
			c0,3.299-2.668,5.958-5.957,5.958c-3.29,0-5.958-2.668-5.958-5.958S367.74,10.49,371.03,10.49z M309.734,14.095
			c1.301,0,2.353,1.052,2.353,2.352c0,1.301-1.052,2.353-2.353,2.353s-2.353-1.052-2.353-2.353S308.443,14.095,309.734,14.095z
			 M302.562,14.095c1.301,0,2.343,1.052,2.343,2.352c0,1.301-1.042,2.353-2.343,2.353s-2.353-1.052-2.353-2.353
			S301.271,14.095,302.562,14.095z M232.039,10.806h58.694c2.64,0,4.781,2.142,4.781,4.781c0,2.639-2.142,4.781-4.781,4.781h-58.694
			c-2.639,0-4.781-2.142-4.781-4.781C227.257,12.947,229.39,10.806,232.039,10.806z M153.052,31.661h238.021v471.89H153.052V31.661z
			"/>
	</g>
</g>
<g>
</g>
<g>
</g>
<g>
</g>
<g>
</g>
<g>
</g>
<g>
</g>
<g>
</g>
<g>
</g>
<g>
</g>
<g>
</g>
<g>
</g>
<g>
</g>
<g>
</g>
<g>
</g>
<g>
</g>
</svg>
