<?xml version="1.0" encoding="UTF-8"?>
<svg width="700pt" height="350" version="1.1" viewBox="100 180 500 200" xmlns="http://www.w3.org/2000/svg" xmlns:xlink="http://www.w3.org/1999/xlink">
 <defs/>
 <g>
  <path d="m594.45 202.74c1.832-5.8867 4.6875-15.625 4.6875-15.625l-140.98 41.074-66.059 76.969-26.66 67.723h86.996c11.352 0 22.566-2.6602 32.609-7.9453 7.7891-4.0977 15.059-8.707 21.844-13.707-24.371-0.94141-51.957-3.0352-78.469-7.2969 0 0 33.48-1.3047 70.695-5.8086 19.434-2.3516 37.105-12.539 48.766-28.262 1.9336-2.6055 3.793-5.2305 5.582-7.8672-29.703-0.28516-69.082 3.7734-106.79-2.3789 0 0 42.582-3.125 85.109-9.8125 21.875-3.4375 40.309-18.184 48.598-38.719l0.11328-0.28125c-29.832 4.207-71.961 8.7031-112.35 7.9961 0 0 39.57-2.6445 79.656-12.312 22.168-5.3516 39.883-21.973 46.66-43.746z"/>
  <path d="m241.86 228.2-140.99-41.078s2.8516 9.7383 4.6875 15.625c6.7773 21.766 24.496 38.395 46.66 43.734 40.086 9.6719 79.656 12.312 79.656 12.312-40.398 0.69922-82.527-3.793-112.36-7.9961l0.11328 0.28125c8.2891 20.535 26.723 35.281 48.598 38.719 42.527 6.6875 85.109 9.8125 85.109 9.8125-37.711 6.1562-77.09 2.0938-106.79 2.3789 1.793 2.6367 3.6562 5.2656 5.5898 7.8672 11.66 15.719 29.332 25.91 48.766 28.262 37.211 4.5039 70.695 5.8086 70.695 5.8086-26.512 4.2617-54.098 6.3555-78.469 7.2969 6.7891 5 14.055 9.6094 21.844 13.707 10.039 5.2852 21.262 7.9453 32.609 7.9453h86.996l-26.66-67.723z"/>
 </g>
</svg>
